<svg width="40" height="40" viewBox="0 0 40 40" fill="none" xmlns="http://www.w3.org/2000/svg">
<g clip-path="url(#clip0_271_487)">
<rect width="40" height="40" fill="#0A0A0A"/>
<mask id="mask0_271_487" style="mask-type:alpha" maskUnits="userSpaceOnUse" x="8" y="8" width="24" height="24">
<rect x="8" y="8" width="24" height="24" fill="#D9D9D9"/>
</mask>
<g mask="url(#mask0_271_487)">
<path d="M15 22V20H25V22H15ZM15 26V24H22V26H15ZM13 30C12.45 30 11.9792 29.8042 11.5875 29.4125C11.1958 29.0208 11 28.55 11 28V14C11 13.45 11.1958 12.9792 11.5875 12.5875C11.9792 12.1958 12.45 12 13 12H14V10H16V12H24V10H26V12H27C27.55 12 28.0208 12.1958 28.4125 12.5875C28.8042 12.9792 29 13.45 29 14V28C29 28.55 28.8042 29.0208 28.4125 29.4125C28.0208 29.8042 27.55 30 27 30H13ZM13 28H27V18H13V28Z" fill="#EBF0F4"/>
</g>
</g>
<defs>
<clipPath id="clip0_271_487">
<rect width="40" height="40" rx="20" fill="white"/>
</clipPath>
</defs>
</svg>
