<svg width="40" height="40" viewBox="0 0 40 40" fill="none" xmlns="http://www.w3.org/2000/svg">
<g clip-path="url(#clip0_271_547)">
<rect width="40" height="40" fill="#0A0A0A"/>
<path d="M20 10.4004C25.3019 10.4004 29.5996 14.6981 29.5996 20C29.5996 25.3019 25.3019 29.5996 20 29.5996C14.6981 29.5996 10.4004 25.3019 10.4004 20C10.4004 14.6981 14.6981 10.4004 20 10.4004ZM20 14.2002C19.4477 14.2002 19 14.6479 19 15.2002V20C19.0001 20.2651 19.1055 20.5196 19.293 20.707L22.6865 24.1016L22.7627 24.1699C23.1554 24.4904 23.7354 24.4676 24.1016 24.1016C24.4676 23.7354 24.4904 23.1554 24.1699 22.7627L24.1016 22.6875L21 19.5859V15.2002C21 14.6479 20.5523 14.2002 20 14.2002Z" fill="#EBF0F4"/>
</g>
<defs>
<clipPath id="clip0_271_547">
<rect width="40" height="40" rx="20" fill="white"/>
</clipPath>
</defs>
</svg>
