<svg width="56" height="56" viewBox="0 0 56 56" fill="none" xmlns="http://www.w3.org/2000/svg">
<circle cx="28" cy="28" r="28" fill="#219EBC"/>
<mask id="mask0_271_244" style="mask-type:alpha" maskUnits="userSpaceOnUse" x="8" y="8" width="40" height="40">
<rect x="8" y="8" width="40" height="40" fill="#D9D9D9"/>
</mask>
<g mask="url(#mask0_271_244)">
<path d="M17.7502 36.5C19.1668 35.4166 20.7502 34.5625 22.5002 33.9375C24.2502 33.3125 26.0835 33 28.0002 33C29.9168 33 31.7502 33.3125 33.5002 33.9375C35.2502 34.5625 36.8335 35.4166 38.2502 36.5C39.2224 35.3611 39.9793 34.0694 40.521 32.625C41.0627 31.1805 41.3335 29.6389 41.3335 28C41.3335 24.3055 40.0349 21.1597 37.4377 18.5625C34.8404 15.9653 31.6946 14.6666 28.0002 14.6666C24.3057 14.6666 21.1599 15.9653 18.5627 18.5625C15.9654 21.1597 14.6668 24.3055 14.6668 28C14.6668 29.6389 14.9377 31.1805 15.4793 32.625C16.021 34.0694 16.7779 35.3611 17.7502 36.5ZM28.0002 29.6666C26.3613 29.6666 24.9793 29.1041 23.8543 27.9791C22.7293 26.8541 22.1668 25.4722 22.1668 23.8333C22.1668 22.1944 22.7293 20.8125 23.8543 19.6875C24.9793 18.5625 26.3613 18 28.0002 18C29.6391 18 31.021 18.5625 32.146 19.6875C33.271 20.8125 33.8335 22.1944 33.8335 23.8333C33.8335 25.4722 33.271 26.8541 32.146 27.9791C31.021 29.1041 29.6391 29.6666 28.0002 29.6666ZM28.0002 44.6666C25.6946 44.6666 23.5279 44.2291 21.5002 43.3541C19.4724 42.4791 17.7085 41.2916 16.2085 39.7916C14.7085 38.2916 13.521 36.5278 12.646 34.5C11.771 32.4722 11.3335 30.3055 11.3335 28C11.3335 25.6944 11.771 23.5278 12.646 21.5C13.521 19.4722 14.7085 17.7083 16.2085 16.2083C17.7085 14.7083 19.4724 13.5208 21.5002 12.6458C23.5279 11.7708 25.6946 11.3333 28.0002 11.3333C30.3057 11.3333 32.4724 11.7708 34.5002 12.6458C36.5279 13.5208 38.2918 14.7083 39.7918 16.2083C41.2918 17.7083 42.4793 19.4722 43.3543 21.5C44.2293 23.5278 44.6668 25.6944 44.6668 28C44.6668 30.3055 44.2293 32.4722 43.3543 34.5C42.4793 36.5278 41.2918 38.2916 39.7918 39.7916C38.2918 41.2916 36.5279 42.4791 34.5002 43.3541C32.4724 44.2291 30.3057 44.6666 28.0002 44.6666Z" fill="#D3ECF2"/>
</g>
</svg>
