<svg width="30" height="30" viewBox="0 0 30 30" fill="none" xmlns="http://www.w3.org/2000/svg">
<path fill-rule="evenodd" clip-rule="evenodd" d="M11.4001 4.19998C7.42365 4.19998 4.2001 7.42353 4.2001 11.4C4.2001 15.3764 7.42365 18.6 11.4001 18.6C15.3765 18.6 18.6001 15.3764 18.6001 11.4C18.6001 7.42353 15.3765 4.19998 11.4001 4.19998ZM0.600098 11.4C0.600098 5.4353 5.43542 0.599976 11.4001 0.599976C17.3648 0.599976 22.2001 5.4353 22.2001 11.4C22.2001 13.7325 21.4607 15.8923 20.2034 17.6577L28.8729 26.3272C29.5758 27.0301 29.5758 28.1698 28.8729 28.8728C28.1699 29.5757 27.0302 29.5757 26.3273 28.8728L17.6579 20.2033C15.8924 21.4606 13.7326 22.2 11.4001 22.2C5.43542 22.2 0.600098 17.3647 0.600098 11.4Z" fill="white"/>
</svg>
