<svg width="16" height="15" viewBox="0 0 16 15" fill="none" xmlns="http://www.w3.org/2000/svg">
<path d="M7.04917 0.927036C7.34852 0.00572556 8.65193 0.00572604 8.95129 0.927037L10.0209 4.21883C10.1547 4.63086 10.5387 4.90982 10.9719 4.90982H14.4331C15.4018 4.90982 15.8046 6.14943 15.0209 6.71883L12.2207 8.75328C11.8702 9.00792 11.7236 9.45929 11.8575 9.87131L12.927 13.1631C13.2264 14.0844 12.1719 14.8505 11.3882 14.2811L8.58801 12.2467C8.23753 11.9921 7.76293 11.9921 7.41244 12.2467L4.61227 14.2811C3.82856 14.8505 2.77408 14.0844 3.07343 13.1631L4.143 9.87131C4.27688 9.45929 4.13022 9.00792 3.77973 8.75328L0.979561 6.71883C0.195848 6.14943 0.598623 4.90982 1.56735 4.90982H5.02855C5.46177 4.90982 5.84573 4.63086 5.9796 4.21883L7.04917 0.927036Z" fill="#219EBC"/>
</svg>
